<?xml version="1.0"?>
<svg xmlns="http://www.w3.org/2000/svg" id="Layer_1" enable-background="new 0 0 512 512" height="512px" viewBox="0 0 512 512" width="512px" class=""><g><path d="m105.375 301.25h-60.25c-8.284 0-15 6.716-15 15v180.75c0 8.284 6.716 15 15 15h60.25c8.284 0 15-6.716 15-15v-180.75c0-8.284-6.716-15-15-15z" data-original="#000000" class="active-path" data-old_color="#000000" fill="#FFFFFF"/><path d="m225.875 241h-60.25c-8.284 0-15 6.716-15 15v241c0 8.284 6.716 15 15 15h60.25c8.284 0 15-6.716 15-15v-241c0-8.284-6.716-15-15-15z" data-original="#000000" class="active-path" data-old_color="#000000" fill="#FFFFFF"/><path d="m346.375 180.75h-60.25c-8.284 0-15 6.716-15 15v301.25c0 8.284 6.716 15 15 15h60.25c8.284 0 15-6.716 15-15v-301.25c0-8.284-6.716-15-15-15z" data-original="#000000" class="active-path" data-old_color="#000000" fill="#FFFFFF"/><path d="m466.875 120.5h-60.25c-8.284 0-15 6.716-15 15v361.5c0 8.284 6.716 15 15 15h60.25c8.284 0 15-6.716 15-15v-361.5c0-8.284-6.716-15-15-15z" data-original="#000000" class="active-path" data-old_color="#000000" fill="#FFFFFF"/><path d="m58.19 210.752c.81 0 1.632-.066 2.458-.202 1.93-.318 48.053-8.101 115.178-34.75 55.841-22.169 136.365-61.817 215.798-127.887v16.147c0 8.284 6.716 15 15 15s15-6.716 15-15v-49.06c0-8.284-6.716-15-15-15h-49.061c-8.284 0-15 6.716-15 15s6.716 15 15 15h8.606c-74.06 60.232-148.484 96.83-200.541 117.571-64.334 25.633-109.424 33.306-109.872 33.381-8.168 1.352-13.696 9.067-12.35 17.238 1.214 7.348 7.573 12.562 14.784 12.562z" data-original="#000000" class="active-path" data-old_color="#000000" fill="#FFFFFF"/></g> </svg>
