<?xml version="1.0"?>
<svg xmlns="http://www.w3.org/2000/svg" height="512px" viewBox="0 0 512 512" width="512px" class=""><g><path d="m391 188.550781-120-91v-7.550781h45c24.8125 0 45-20.1875 45-45v-45h-120v97.550781l-120 91v52.449219h-121v271h512v-271h-121zm-120 202.449219h30v91h-30zm-30 91h-30v-91h30zm-60-121v121h-30v-271h210v271h-30v-121zm-.394531-180 75.394531-57.175781 75.394531 57.175781zm90.394531-151h60v15c0 8.269531-6.730469 15-15 15h-45zm-150 241v30h-91v-30zm-91 180h30v-30h-30v-30h30v-30h-30v-30h91v151h-91zm361 31v-151h91v30h-30v30h30v30h-30v30h30v31zm91-211v30h-91v-30zm0 0" data-original="#000000" class="active-path" data-old_color="#000000" fill="#FFFFFF"/><path d="m256 241c-24.8125 0-45 20.1875-45 45s20.1875 45 45 45 45-20.1875 45-45-20.1875-45-45-45zm0 60c-8.269531 0-15-6.730469-15-15s6.730469-15 15-15 15 6.730469 15 15-6.730469 15-15 15zm0 0" data-original="#000000" class="active-path" data-old_color="#000000" fill="#FFFFFF"/></g> </svg>
