<svg id="Layer_1" data-name="Layer 1" xmlns="http://www.w3.org/2000/svg" viewBox="0 0 350 350"><defs><style>.cls-1{fill:#fff;}</style></defs><title>icon</title><path class="cls-1" d="M121,71H225V96.85h26.11V274.26h14.5c0-6,.16-11.65-.13-17.27-.06-1.25-1.48-2.72-2.64-3.58-4.09-3-6.36-8.73-4.91-13.06a11.83,11.83,0,0,1,11-7.73,11.49,11.49,0,0,1,10.56,8.79c1.3,5.38-.6,9.57-5.43,12.56-1.1.68-2.53,2-2.57,3-.26,5.75-.12,11.52-.12,18H288v4H246c-1.51,4.15.13,4.75,3.09,4.75,13,0,26,.15,38.95.25v5H57V275H73.71c0-5.67-.14-10.47.05-15.25.13-3.2-.47-5.27-3.65-7.12-3.63-2.12-5.39-5.83-4.57-10.58.85-5,4.15-7.58,8.19-9s7.7.11,10.69,3.4c5.81,6.39,3.76,14.49-4.8,18.63v19.38h16.2V96.58H121Zm95.32,203.48V81.33H129.59V274.48Zm-96,0V106.39H104.59V274.47ZM225.59,106.34v168h15.9v-168Zm-149,130.9c-4.48,0-6.43,2.09-6.62,6.63s2.64,6.18,6.28,6.69,6.59-2.69,6.63-6.86S80.62,237.27,76.59,237.24Zm192.36,0c-4.27-.15-6.63,1.92-6.76,5.93-.14,4.38,2.18,7.24,6.05,7.46A6.24,6.24,0,0,0,275,244.4C275.2,239.76,273.21,237.4,269,237.25Z"/><path class="cls-1" d="M142,102.24h12v21.67H142Z"/><path class="cls-1" d="M166,102.22H178v21.66H166Z"/><path class="cls-1" d="M203.91,124H192.09V102.39h11.82Z"/><path class="cls-1" d="M154.09,155.18v21.49H142V155.18Z"/><path class="cls-1" d="M177.9,176.77H166V155.19H177.9Z"/><path class="cls-1" d="M203.91,176.76H192V155.17h11.91Z"/><path class="cls-1" d="M153.92,229H142.08V208h11.84Z"/><path class="cls-1" d="M179,208.07v20.86H167.16V208.07Z"/><path class="cls-1" d="M192,208h12v20.92H192Z"/></svg>