<svg id="Capa_1" enable-background="new 0 0 512 512" height="512" viewBox="0 0 512 512" width="512" xmlns="http://www.w3.org/2000/svg"><g id="XMLID_701_"><path id="XMLID_57_" d="m451 512h-390v-512h276.205c.101 0 110.201 110.354 113.795 113.913z" fill="#e4f3ff"/><path id="XMLID_56_" d="m451 113.834c-33.023-33.065 2.033 2.03-113.794-113.834h-81.206v512h195c0-23.152 0-374.462 0-398.166z" fill="#c3dafd"/><path id="XMLID_29_" d="m337.219 0v113.774c7-.001 107.068.061 113.781.06z" fill="#a1b8d8"/><g id="XMLID_621_"><g><path id="XMLID_262_" d="m136 105h120.002v30h-120.002z" fill="#77b0fb"/></g></g><g id="XMLID_53_"><g><path id="XMLID_268_" d="m136 180h120.002v30h-120.002z" fill="#77b0fb"/></g></g><path id="XMLID_670_" d="m233.5 451.45 80.053-80.052-23.879-18.548-56.174 56.174-44.973-44.972-127.527 127.02v20.928h21.335l106.138-105.656z" fill="#dc4c69"/><path d="m286 288v30h38.524l-68.524 68.524v42.426l90-90v39.05h30v-90z" fill="#c21d75"/></g></svg>