<svg id="Layer_1" enable-background="new 0 0 510 510" height="512" viewBox="0 0 510 510" width="512" xmlns="http://www.w3.org/2000/svg"><g><path d="m285 0h-180v30h-90v480h360v-480h-90zm-150 30h120v30h-120zm210 30v420h-300v-420h60v30h180v-30z"/><path d="m450 137.958-45 67.5v259.542c0 24.814 20.187 45 45 45s45-20.186 45-45v-259.542zm0 54.084 15 22.5v190.458h-30v-190.458zm0 287.958c-8.271 0-15-6.728-15-15v-30h30v30c0 8.272-6.729 15-15 15z"/><path d="m75 210h90v-90h-90zm30-60h30v30h-30z"/><path d="m195 150h120v30h-120z"/><path d="m75 330h90v-90h-90zm30-60h30v30h-30z"/><path d="m195 270h120v30h-120z"/><path d="m75 450h90v-90h-90zm30-60h30v30h-30z"/><path d="m195 390h120v30h-120z"/></g></svg>