<svg id="Layer_5" enable-background="new 0 0 64 64" height="512" viewBox="0 0 64 64" width="512" xmlns="http://www.w3.org/2000/svg"><path d="m61 51v-14.403c0-1.541-.518-2.982-1.415-4.149.902-.932 1.415-2.167 1.415-3.455 0-1.336-.52-2.592-1.464-3.536-1.636-1.635-2.536-3.633-2.536-5.627v-3.33c0-5.242-4.265-9.507-9.507-9.507h-.986c-5.242 0-9.507 4.265-9.507 9.507v3.33c0 1.994-.9 3.992-2.536 5.627-.944.944-1.464 2.2-1.464 3.536 0 1.288.514 2.522 1.415 3.454-.897 1.166-1.415 2.608-1.415 4.15v14.403h-2v-14.403c0-2.601-1.445-4.938-3.77-6.1-.61-.305-1.26-.517-1.929-.627l-4.301-.717v-1.701c.987-.886 1.677-2.09 1.909-3.453h1.091c1.654 0 3-1.346 3-3 0-.714-.261-1.361-.679-1.877.442-.896.679-1.88.679-2.892v-.23c0-2.004-1.482-3.669-3.408-3.956l-.655-1.092c-1.462-2.437-4.136-3.952-6.979-3.952-2.175 0-4.219.847-5.756 2.384l-.624.625c-1.662 1.662-2.578 3.872-2.578 6.221 0 1.011.237 1.995.679 2.893-.418.516-.679 1.163-.679 1.877 0 1.654 1.346 3 3 3h1.091c.232 1.362.922 2.567 1.909 3.453v1.701l-4.3.716c-.671.11-1.32.322-1.93.627-2.325 1.162-3.77 3.499-3.77 6.1v14.403c-1.103 0-2 .897-2 2v2c0 1.103.897 2 2 2h58c1.103 0 2-.897 2-2v-2c0-1.103-.897-2-2-2zm-25.122-24.129c2.014-2.013 3.122-4.513 3.122-7.041v-3.33c0-4.14 3.368-7.507 7.507-7.507h.986c4.139 0 7.507 3.367 7.507 7.507v3.33c0 2.528 1.108 5.028 3.122 7.041.566.567.878 1.32.878 2.122 0 .744-.305 1.455-.864 2.053-.285-.202-.585-.389-.905-.549-.61-.305-1.26-.517-1.929-.627l-4.302-.717v-1.701c1.224-1.099 2-2.688 2-4.46v-5h-1.171c-1.557 0-3.021-.606-4.122-1.707l-.707-.706-.707.707c-1.101 1.101-2.565 1.707-4.122 1.707h-1.171v5c0 1.771.776 3.36 2 4.46v1.701l-4.3.717c-.671.11-1.32.322-1.93.627-.322.161-.622.349-.909.552-.542-.562-.861-1.291-.861-2.057 0-.802.312-1.555.878-2.122zm13.122 3.129v.847.153c0 1.103-.897 2-2 2s-2-.897-2-2v-.153-.847-1.357c.627.223 1.298.35 2 .35s1.373-.128 2-.35zm-2-3.007c-2.206 0-4-1.794-4-4v-3.043c1.466-.153 2.843-.712 4-1.622 1.157.91 2.534 1.469 4 1.622v3.043c0 2.206-1.794 4-4 4zm-12 9.604c0-1.838 1.021-3.489 2.665-4.311.431-.216.889-.365 1.363-.443l3.99-.666c.095 2.123 1.837 3.823 3.982 3.823s3.887-1.701 3.982-3.823l3.992.666c.473.078.931.228 1.362.443 1.643.821 2.664 2.473 2.664 4.311v14.403h-3.026c.635-.838 1.026-1.87 1.026-3v-8c0-1.654-1.346-3-3-3h-14c-1.654 0-3 1.346-3 3v8c0 1.13.391 2.162 1.026 3h-3.026zm4.184 12.403h15.631c-.414 1.161-1.514 2-2.816 2h-9.999c-1.302 0-2.402-.839-2.816-2zm15.816-2h-16v-7c0-.552.449-1 1-1h14c.551 0 1 .448 1 1zm-28.665-14.714c1.644.821 2.665 2.473 2.665 4.311v14.403h-3.026c.635-.838 1.026-1.87 1.026-3v-8c0-1.654-1.346-3-3-3h-1.867l.689-5.516 2.152.359c.472.078.93.227 1.361.443zm-17.151 16.714h15.631c-.414 1.161-1.514 2-2.816 2h-9.999c-1.302 0-2.402-.839-2.816-2zm4.381-17.914 2.115 2.82-1.941 1.941-.586-4.692zm5.021 5.914h-3.172l1.586-1.586zm1.849-5.914.413.069-.586 4.693-1.941-1.941zm3.565 7.914c.551 0 1 .448 1 1v7h-16v-7c0-.552.449-1 1-1zm-3-16.007c0 2.206-1.794 4-4 4s-4-1.794-4-4v-3.043c1.466-.153 2.843-.712 4-1.622 1.157.91 2.534 1.469 4 1.622zm3-.993h-1v-2h1c.551 0 1 .448 1 1s-.449 1-1 1zm-15-1c0-.552.449-1 1-1h1v2h-1c-.551 0-1-.448-1-1zm3.171-3.007h-1.171v.007h-1c-.209 0-.412.022-.609.063-.253-.576-.391-1.196-.391-1.833 0-1.815.708-3.523 1.992-4.808l.624-.625c1.159-1.158 2.701-1.797 4.342-1.797 2.145 0 4.162 1.143 5.265 2.981l1.211 2.019h.566c1.103 0 2 .897 2 2v.23c0 .637-.138 1.257-.391 1.832-.197-.04-.4-.062-.609-.062h-1v-.007h-1.171c-1.557 0-3.021-.606-4.122-1.707l-.707-.707-.707.707c-1.101 1.101-2.565 1.707-4.122 1.707zm4.829 11c.702 0 1.373-.128 2-.35v1.024l-2 2.666-2-2.666v-1.024c.627.223 1.298.35 2 .35zm-12 7.604c0-1.838 1.021-3.489 2.665-4.311.431-.216.889-.365 1.363-.443l2.15-.359.689 5.516h-1.867c-1.654 0-3 1.346-3 3v8c0 1.13.391 2.162 1.026 3h-3.026zm-2 18.403v-2h9 10 20 10 9l.001 2z"/></svg>