<svg id="Layer_1" data-name="Layer 1" xmlns="http://www.w3.org/2000/svg" viewBox="0 0 350 350"><defs><style>.cls-1{fill:#fff;}</style></defs><title>icon</title><path class="cls-1" d="M174.15,233.74l-2.92-1.09c-1.86,5-3.81,9.46-5.24,14.28a38.15,38.15,0,0,1-6.13,12.24,46.26,46.26,0,0,1-9.88,9.6q-12.25,9-25,17.21a11.07,11.07,0,0,1-6,1.87,9.64,9.64,0,0,1-4.75-1.23,9.82,9.82,0,0,1-3.78-13.73,14.13,14.13,0,0,1,4.3-4.46c9-6.11,17.74-12.53,26.38-19.05A12.5,12.5,0,0,0,144,246a21.35,21.35,0,0,0,1.77-3.6c3.4-8.77,6.58-17.59,9.75-26.38a10,10,0,0,0,.37-1.34,8.14,8.14,0,0,0,.16-1.56,5.55,5.55,0,0,0-.14-1.28,4.36,4.36,0,0,0-.76-1.63h0a20.54,20.54,0,0,1-3.74-7.81,36.41,36.41,0,0,1-.91-8.9c0-1.74.06-3.53.15-5.36.08-1.67.1-3.31.1-5,0-2.73-.06-5.47-.06-8.29v-3.39l-3.38.28c-1.84.15-4,.2-6.25.6a3.63,3.63,0,0,0-1,.34,4.62,4.62,0,0,0-1.14.79,6.09,6.09,0,0,0-1,1.25,5.85,5.85,0,0,0-.67,1.47,3.91,3.91,0,0,1-.37.93,1.82,1.82,0,0,1-.19.27.36.36,0,0,1-.17.11,1.55,1.55,0,0,1-.55.07,5.54,5.54,0,0,1-1-.11c-10.12-2-20.24-3.83-30.28-5.85a6.29,6.29,0,0,1-3.58-2.05,5.35,5.35,0,0,1-1.33-3.54,5,5,0,0,1,.08-.93h0a220.67,220.67,0,0,1,5.28-24.6A86.4,86.4,0,0,1,114.94,118a73,73,0,0,1,9.43-11.89,15.19,15.19,0,0,1,4.76-3.39,13,13,0,0,1,5.36-1.11,17.09,17.09,0,0,1,4.33.59c3.08.81,6.11,1.34,9,1.94a18.9,18.9,0,0,1,2.44.59,2.57,2.57,0,0,1,.32.12l0,0,.11-.17-.13.16h0l.11-.17-.13.16.49-.66-.7.42a.87.87,0,0,0,.21.24l.49-.66-.7.42.49-.29-.52.23,0,.06.49-.29-.52.23.09,0-.1,0h0l.09,0-.1,0a2.75,2.75,0,0,1,.11.64c0,.41.07,1,.09,1.79l.08,3h24.92a57.2,57.2,0,0,1,7.67.36,20.1,20.1,0,0,1,6.82,2A22.54,22.54,0,0,1,202,137.27c-.83,4-2,8-3.22,12.56l3,.78,2.58-1.76a39.91,39.91,0,0,1-6.69-17.57c-.27-2-.39-4.1-.52-6.28a17.31,17.31,0,0,0-5.36-11.57A17.13,17.13,0,0,0,180,108.69h-.16a17.44,17.44,0,0,0-12,4.91,16.69,16.69,0,0,0-3.69,5.34,16.51,16.51,0,0,0-1.37,6.6v.17a78.23,78.23,0,0,0,7.26,33,76.67,76.67,0,0,0,20.83,26.37,14.51,14.51,0,0,1,4.06,4.91,11.6,11.6,0,0,1,1.07,5.08,24.46,24.46,0,0,1-.51,4.57,35.55,35.55,0,0,1-2,6.23c-.89,2.21-1.94,4.6-2.94,7.26l-.52,1.41.77,1.28c5.54,9.26,11.51,19.52,17.82,29.62a26.76,26.76,0,0,1,4,12.33c1.09,13.5,2.41,27,3.64,40.41a10.79,10.79,0,0,1,.06,1.12,10.59,10.59,0,0,1-2.49,6.95,10.15,10.15,0,0,1-6.44,3.43,10.66,10.66,0,0,1-1.38.09,10,10,0,0,1-6.48-2.39,9.77,9.77,0,0,1-3.31-6.27c-1.25-9.89-2-19.93-2.89-30-.29-3.06-.36-6.37-.9-9.83a19.9,19.9,0,0,0-2.31-6.86c-4.23-7.33-8.64-14.51-13.29-22.27l-3.34-5.57-2.26,6.09,2.92,1.09-2.67,1.61c4.67,7.78,9.06,14.94,13.23,22.17a13.88,13.88,0,0,1,1.55,4.72c.47,2.89.54,6.07.85,9.43.93,10,1.64,20.09,2.91,30.21A16.06,16.06,0,0,0,206,316a16.7,16.7,0,0,0,12.56-5.71,16.83,16.83,0,0,0,4-11c0-.55,0-1.12-.08-1.69-1.24-13.47-2.55-26.91-3.64-40.35a32.78,32.78,0,0,0-4.92-15.12c-6.24-10-12.19-20.22-17.76-29.52l-2.68,1.6,2.92,1.09c.91-2.44,1.94-4.77,2.88-7.13a40.1,40.1,0,0,0,2.32-7.35,30.39,30.39,0,0,0,.62-5.76,17.73,17.73,0,0,0-1.67-7.76,20.62,20.62,0,0,0-5.72-7A70.56,70.56,0,0,1,175.66,156,72,72,0,0,1,169,125.64h0v-.08a10.34,10.34,0,0,1,.84-4.11,10.71,10.71,0,0,1,3.94-4.65,11.18,11.18,0,0,1,6.09-1.85h.1a10.86,10.86,0,0,1,7.5,3,11.11,11.11,0,0,1,3.44,7.41c.12,2.17.25,4.44.56,6.76a46.4,46.4,0,0,0,7.73,20.26l3.88,5.67,1.72-6.65c1.14-4.41,2.37-8.52,3.28-12.84a28.75,28.75,0,0,0-15.16-31.65,26.72,26.72,0,0,0-8.88-2.7,63.51,63.51,0,0,0-8.5-.41H153.67v3.12l3.12-.08a21.69,21.69,0,0,0-.23-3.13,7.63,7.63,0,0,0-.3-1.16,5.53,5.53,0,0,0-1.2-2,5.71,5.71,0,0,0-1.38-1.07,9.57,9.57,0,0,0-2.17-.85c-.74-.2-1.52-.37-2.43-.56-3-.62-5.93-1.14-8.67-1.86a23.52,23.52,0,0,0-5.92-.79A19.53,19.53,0,0,0,126.62,97a21.59,21.59,0,0,0-6.72,4.75,80.24,80.24,0,0,0-10.23,12.9,92.7,92.7,0,0,0-10.59,24.15,227.2,227.2,0,0,0-5.44,25.3l0,.23,0-.24a12.34,12.34,0,0,0-.17,2,11.69,11.69,0,0,0,2.84,7.61,12.6,12.6,0,0,0,7.09,4.11c10.12,2,20.25,3.85,30.3,5.84a11.17,11.17,0,0,0,2.22.24,8,8,0,0,0,2.45-.37,6.79,6.79,0,0,0,1.73-.85,7.13,7.13,0,0,0,2-2.08,10.17,10.17,0,0,0,1.12-2.6l-.9-.26.87.37s0-.05,0-.11l-.9-.26.87.37L143,178l.17.09h0L143,178l.17.09,0,0h0l-.76-.7.58.85a1.66,1.66,0,0,0,.18-.15l-.76-.7.58.85-1.22-1.79.37,2.12a2.29,2.29,0,0,0,.85-.33l-1.22-1.79.37,2.12c1.67-.3,3.61-.36,5.68-.53l-.26-3.11h-3.12c0,2.92.07,5.66.07,8.29,0,1.59,0,3.14-.1,4.67-.09,1.86-.16,3.75-.16,5.65a43.08,43.08,0,0,0,1.1,10.41,26.91,26.91,0,0,0,4.86,10.12l.06.09-.06-.09,1.57-1.22-1.95.47a2.09,2.09,0,0,0,.38.75l1.57-1.22-1.95.47,1-.25-1.06.11s0,.06,0,.14l1-.25-1.06.11.41-.05-.41,0v0l.41-.05-.41,0h0a1.75,1.75,0,0,1,0,.34,2.71,2.71,0,0,1-.12.44c-3.17,8.8-6.33,17.57-9.69,26.24a14.38,14.38,0,0,1-1.25,2.55,6.43,6.43,0,0,1-1.41,1.67c-8.6,6.48-17.27,12.84-26.13,18.86a20.42,20.42,0,0,0-6.18,6.47,16.33,16.33,0,0,0,6.12,22.34,15.92,15.92,0,0,0,7.8,2,17.42,17.42,0,0,0,9.44-2.87q12.92-8.33,25.31-17.41a52.72,52.72,0,0,0,11.2-10.91A44.28,44.28,0,0,0,172,248.69c1.27-4.3,3.16-8.64,5.1-13.86l-2.93-1.09-2.67,1.61Zm-32.54-64-.33,3.1c1.43.15,2.58.26,3.67.27a12.6,12.6,0,0,0,1.37-.09,6,6,0,0,0,1.26-.29,5.28,5.28,0,0,0,1.13-.54,5,5,0,0,0,1.56-1.59,6.27,6.27,0,0,0,.62-1.32,12,12,0,0,0,.45-1.91c.11-.65.19-1.34.28-2.1,1.09-9.28,2.12-18.51,3.65-27.59a77.57,77.57,0,0,1,2.15-9.9,27.56,27.56,0,0,1,4.16-8.54c.55-.73,1.17-1.47,1.9-2.29s1.56-1.74,2.48-2.8l4.78-5.52-7.29.35c-3.32.17-6,.37-8.49.4a7.63,7.63,0,0,0-2.23.33,5.74,5.74,0,0,0-1.64.86,5.4,5.4,0,0,0-1,1,6.47,6.47,0,0,0-.89,1.67,9.92,9.92,0,0,0-.43,1.64c-1.9,10.68-4,21.36-6,32.07q-2.1,11.08-4.22,22.21l-.63,3.33,3.37.36.33-3.1,3.07.58q2.12-11.13,4.22-22.22c2-10.68,4.12-21.38,6-32.13a3.23,3.23,0,0,1,.17-.66v0h0l-.56-.29.45.44a1,1,0,0,0,.11-.15l-.56-.29.45.44-.61-.6.27.82a1.15,1.15,0,0,0,.34-.22l-.61-.6.27.82-.06-.17,0,.17h0l-.06-.17,0,.17h.09l.28,0c2.81,0,5.5-.24,8.72-.4l-.15-3.12-2.36-2c-.86,1-1.66,1.87-2.43,2.75s-1.52,1.74-2.24,2.69A33.82,33.82,0,0,0,151.45,126a84.16,84.16,0,0,0-2.34,10.69c-1.57,9.31-2.6,18.65-3.69,27.9-.12,1-.22,1.74-.32,2.22a3.61,3.61,0,0,1-.15.58h0l.81.39-.63-.63a.85.85,0,0,0-.18.24l.81.39-.63-.63.9.9-.62-1.11a1.37,1.37,0,0,0-.28.21l.9.9-.62-1.11.42.76-.27-.83-.15.07.42.76-.27-.83.09.27-.08-.27h0l.09.27-.08-.27h0a4.92,4.92,0,0,1-.59,0c-.62,0-1.64-.08-3-.23l-.33,3.11,3.07.58Z"/><path class="cls-1" d="M235.79,72.37h-3.12a30.92,30.92,0,0,1-31,31h0a30.83,30.83,0,0,1-31.15-31h-2.05l2.05,0v0h-2.05l2.05,0v0a31,31,0,0,1,30.93-31.07h0a31,31,0,0,1,31.18,31.11.54.54,0,0,0,0,.14l3.12-.12h0l3.12-.12-2.79.11,2.79,0v-.08l-2.79.11,2.79,0-2.16,0h2.16v0l-2.16,0h2.16A37.27,37.27,0,0,0,201.49,35h0a37.22,37.22,0,0,0-37.18,37.3h3.13l-3.13,0v.09a37.12,37.12,0,0,0,37.4,37.29h0a37.16,37.16,0,0,0,37.2-37.26v-.12Z"/><path class="cls-1" d="M179.86,113.58l0,3.12h.05a9.84,9.84,0,0,1,6.49,2.31,8.15,8.15,0,0,1,1.93,2.52,8,8,0,0,1,.79,3.24,59.78,59.78,0,0,0,3.05,17.11A52.27,52.27,0,0,0,204.79,162a75.89,75.89,0,0,0,20.29,14.21,10.36,10.36,0,0,1,4.16,3.67,8.91,8.91,0,0,1,1.42,4.85,9.61,9.61,0,0,1-.88,4,9.4,9.4,0,0,1-3.43,4,9,9,0,0,1-4.88,1.48,8.56,8.56,0,0,1-3.75-.87,103.94,103.94,0,0,1-19.14-11.72,71.77,71.77,0,0,1-19.82-23.44c-4.74-9.09-7.56-19.55-8.18-31.69,0-.19,0-.38,0-.56a9.21,9.21,0,0,1,2.65-6.61,9.35,9.35,0,0,1,6.66-2.66v-3.12l0-3.12a15.61,15.61,0,0,0-11,4.48,15.39,15.39,0,0,0-4.48,11c0,.29,0,.58,0,.88a87.44,87.44,0,0,0,4.42,23.83A74.57,74.57,0,0,0,186.28,179c7.84,8,17.53,14.59,28.74,20a14.78,14.78,0,0,0,6.45,1.48,15.16,15.16,0,0,0,8.3-2.5,15.7,15.7,0,0,0,5.71-6.69,15.93,15.93,0,0,0,1.43-6.55,15.27,15.27,0,0,0-2.4-8.2,16.51,16.51,0,0,0-6.64-5.9,78.51,78.51,0,0,1-13.21-8.21,47.8,47.8,0,0,1-19.28-37.9A14.24,14.24,0,0,0,194,118.8a14.5,14.5,0,0,0-5.73-6.13,16.31,16.31,0,0,0-8.31-2.21h-.09Z"/></svg>