<svg id="Layer_1" data-name="Layer 1" xmlns="http://www.w3.org/2000/svg" viewBox="0 0 350 350"><defs><style>.cls-1{fill:#fff;}</style></defs><title>icon</title><path class="cls-1" d="M109.89,295V283.48h61.88V78.66H83.18V67H272.72V78.52H184.17V283.34h61.88V295Z"/><path class="cls-1" d="M97.93,224c-22.84,0-43.49-19.5-44.49-42.3a12.11,12.11,0,0,1,1.44-6.3q18.49-31.69,37.26-63.21c3.19-5.38,8.43-5.27,11.59.11,11.9,20.23,23.63,40.55,35.84,60.59,3.05,5,2.92,9.72,2,14.87C137.82,207.79,118.33,224,97.93,224Zm-.1-98.1-28,47.37h56Zm31.79,59.73H66.05c1.21,14.8,15.32,26.49,31.77,26.5S128.35,200.53,129.62,185.65Z"/><path class="cls-1" d="M258.06,224c-22.81,0-43.46-19.67-44.36-42.44a12.14,12.14,0,0,1,1.5-6.29q18.41-31.53,37.08-62.88c3.34-5.63,8.51-5.55,11.79,0,11.57,19.7,23,39.49,34.9,59a21.32,21.32,0,0,1,2.91,16.13C298.12,207.69,278.65,224,258.06,224Zm28.15-50.55c-9.47-16-18.61-31.48-28.11-47.55L230,173.47Zm3.64,12.34H226.2c2.54,16.34,16.62,27.11,34,26.29C275.55,211.39,289.09,199.36,289.85,185.81Z"/></svg>