<svg id="Layer_1" data-name="Layer 1" xmlns="http://www.w3.org/2000/svg" viewBox="0 0 350 350"><defs><style>.cls-1{fill:#fff;}</style></defs><title>icon</title><path class="cls-1" d="M75.29,157.25c-2.55-8.72,2.12-14.46,10.86-18.47,5.44-2.51,10.23-6.42,15.59-9.16,4.08-2.09,4.87-3.91,2.82-8.42-8.12-17.87,1-36.23,19.37-40,11-2.28,20.27,1.22,27.1,9.66s8.38,18.24,3.93,28.54c-1.47,3.4-4.44,6.38.83,9.73,10.29,6.56,10.19,6.83,15.85,1.24,9.52-9.4,7.32-9,16.67,0,1.91,1.84,3.5,5.38,6.69,4.13,4.77-1.87,9.53-4.31,13.05-8.09,1.5-1.61-1.09-3.87-1.94-5.76-7.62-16.88,1.58-35.55,19.3-39.33,11-2.34,20.29,1,27.31,9.2,7.54,8.8,8.59,19.44,3.68,29.72-2.62,5.5-.95,7.58,3.4,10,7.15,4,14,8.44,21.17,12.47,3.36,1.9,5.12,4.33,5,8.26-.14,5.82,0,11.64-.1,17.46,0,2-.25,4.11-2.93,4.21-2.91.11-3.54-2-3.58-4.31-.06-4.53-.16-9.06-.06-13.59.08-3.58-1.17-6.1-4.41-7.92-7.32-4.12-14.53-8.44-21.73-12.79-3.2-1.93-6.2-2.44-9.7-.56-7.74,4.16-15.64,4-23.67.52-5-2.15-16.06,1.3-18.88,5.66-1.95,3,1,4.29,2.47,5.78q23.24,23.43,46.62,46.7c6.82,6.82,6.82,6.83.21,13.43-21.65,21.66-43.4,43.2-64.86,65.05-4.18,4.25-6.7,4.27-10.88,0q-32.88-33.45-66.32-66.33c-4.48-4.39-3.79-6.9.27-10.87,16.5-16.13,32.62-32.64,49.1-48.79,3.45-3.38,3.53-4.75-.81-7.33-6.15-3.64-11.46-6.63-19-2.47-6.83,3.79-14.36,1.75-21.15-1.57a7.86,7.86,0,0,0-8.44.42q-11.3,6.94-22.81,13.5A7.08,7.08,0,0,0,81.53,154c0,5,0,9.92-.12,14.88,0,1.78-.46,3.54-2.74,3.71-2.67.2-3.3-1.64-3.36-3.74C75.22,165.41,75.29,162,75.29,157.25ZM179.87,265a4.55,4.55,0,0,0,3.71-1.78q30.42-30.39,60.83-60.78c2.54-2.53,2.44-4.62-.06-7.11Q214.13,165.19,184,134.94c-2.58-2.59-4.43-2.45-7,.09q-29.85,30-59.9,59.89c-3,3-2.85,5.12.08,8q29.83,29.61,59.48,59.39C177.76,263.38,179,264.24,179.87,265ZM129.46,129.12c12.48,0,20.67-8.11,20.76-20.52s-8.45-21-21.12-21c-12,0-20.89,8.78-20.95,20.69C108.09,120.62,116.78,129.12,129.46,129.12Zm101.82,0c12.33,0,21.23-8.91,21.12-21-.12-11.86-9.4-20.57-21.82-20.47A20.59,20.59,0,0,0,210,108.69C210.2,120.36,219.37,129.14,231.28,129.1Z"/><path class="cls-1" d="M206,185.85c-.8.94-1.68,2.14-2.72,3.19-9,9-18.07,17.89-26.91,27-3.15,3.26-5.51,3.21-8.5-.07-3.63-4-7.56-7.67-11.38-11.47-1.76-1.76-2.33-3.52-.38-5.59s3.77-1.3,5.44.47c.45.46.92.91,1.38,1.36,9.41,9.08,9.41,9.08,18.49,0,5.79-5.79,11.58-11.59,17.4-17.34,1.22-1.21,2.56-2.52,4.51-1.37A4.72,4.72,0,0,1,206,185.85Z"/></svg>