<svg id="Layer_1" data-name="Layer 1" xmlns="http://www.w3.org/2000/svg" viewBox="0 0 350 350"><defs><style>.cls-1{fill:#730f77;}.cls-2{fill:#ed5136;}</style></defs><title>calendar</title><path class="cls-1" d="M282.75,64.73h-34V49a7.85,7.85,0,0,0-15.69,0V64.73H186V49a7.85,7.85,0,0,0-15.69,0V64.73H123.22V49a7.85,7.85,0,0,0-15.69,0V64.73h-34A20.91,20.91,0,0,0,52.61,85.65V271.34a20.92,20.92,0,0,0,20.92,20.92H282.75a20.92,20.92,0,0,0,20.92-20.92V85.65A20.91,20.91,0,0,0,282.75,64.73ZM288,271.34a5.24,5.24,0,0,1-5.23,5.23H73.53a5.23,5.23,0,0,1-5.23-5.23V85.65a5.23,5.23,0,0,1,5.23-5.22h34V96.12a7.85,7.85,0,0,0,15.69,0V80.43h47.07V96.12a7.85,7.85,0,0,0,15.69,0V80.43h47.08V96.12a7.85,7.85,0,0,0,15.69,0V80.43h34A5.23,5.23,0,0,1,288,85.65Zm-180.45-136h31.38v23.53H107.53Zm0,39.22h31.38v23.54H107.53Zm0,39.23h31.38v23.54H107.53Zm54.92,0h31.38v23.54H162.45Zm0-39.23h31.38v23.54H162.45Zm0-39.22h31.38v23.53H162.45Zm54.92,78.45h31.38v23.54H217.37Zm0-39.23h31.38v23.54H217.37Zm0-39.22h31.38v23.53H217.37Z"/><rect class="cls-2" x="108" y="136" width="31" height="23"/><rect class="cls-2" x="162" y="136" width="31" height="23"/><rect class="cls-2" x="218" y="136" width="31" height="23"/><rect class="cls-2" x="108" y="174" width="31" height="24"/><rect class="cls-2" x="162" y="174" width="31" height="24"/><rect class="cls-2" x="218" y="174" width="31" height="24"/><rect class="cls-2" x="108" y="214" width="31" height="23"/><rect class="cls-2" x="162" y="214" width="31" height="23"/><rect class="cls-2" x="218" y="214" width="31" height="23"/></svg>