<svg id="Layer_1" data-name="Layer 1" xmlns="http://www.w3.org/2000/svg" viewBox="0 0 350 350"><defs><style>.cls-1{fill:#730f77;}.cls-2{fill:#ed5136;}</style></defs><title>Conclusions</title><path class="cls-1" d="M130.18,120.54a5,5,0,0,1,0-10H252.77a5,5,0,0,1,0,10Zm0,51.65a5,5,0,1,1,0-10h108.9a5,5,0,0,1,0,10ZM56.75,300.38a5.36,5.36,0,0,1-5-5V49a5.36,5.36,0,0,1,5-5H289.48a5.36,5.36,0,0,1,5,5V177.17h0a5.36,5.36,0,0,1-5,5,4.91,4.91,0,0,1-5-5V60.8c0-5-1.86-6.84-6.84-6.84H68.57c-5,0-6.84,1.86-6.84,6.84V284.2c0,5,1.86,6.84,6.84,6.84h135l1.24.63c1.87.62,2.49,2.48,2.49,4.35a5.23,5.23,0,0,1-2.49,4.36l-1.24.62-146.86-.62Zm73.43-75.92a5,5,0,0,1,0-10H203a5,5,0,1,1,0,10ZM98.44,123.65c-1.86,0-4.35-.62-5.6-2.49a9.27,9.27,0,0,1-2.49-5.6c0-1.87.63-4.35,2.49-5.6a9.33,9.33,0,0,1,5.6-2.49c1.87,0,4.36.62,5.6,2.49a9.24,9.24,0,0,1,2.49,5.6c0,1.87-.62,4.36-2.49,5.6s-3.73,2.49-5.6,2.49ZM236,286.69c-1.25,0-2.49-1.25-3.12-1.87l-26.13-35.47c-.62-.62-1.87-3.11,0-4.35a2.26,2.26,0,0,1,1.87-.63,10.71,10.71,0,0,1,3.11,1.25h0l24.89,19.91,59.74-55.38a4.71,4.71,0,0,1,2.49-1.25c.62,0,.62,0,1.24.63,0,0,.62,1.24-.62,3.73l-61,71.56h0a2.78,2.78,0,0,1-2.48,1.87ZM99.69,227.57c-1.87,0-4.36-.62-5.6-2.49s-2.49-3.11-2.49-5.6.62-4.35,2.49-5.6,3.73-2.49,5.6-2.49,4.35.62,5.6,2.49,2.49,3.74,2.49,5.6-.63,4.36-2.49,5.6c-1.25,1.87-3.11,2.49-5.6,2.49Zm0-51.65c-1.87,0-4.36-.62-5.6-2.49a9.22,9.22,0,0,1-2.49-5.6c0-1.86.62-4.35,2.49-5.6s3.73-2.49,5.6-2.49,4.35.63,5.6,2.49,2.49,3.74,2.49,5.6-.63,4.36-2.49,5.6c-1.25,1.87-3.11,2.49-5.6,2.49Z"/><path class="cls-2" d="M236,286.69c-1.25,0-2.49-1.25-3.12-1.87l-26.13-35.47c-.62-.62-1.87-3.11,0-4.35a2.26,2.26,0,0,1,1.87-.63,10.71,10.71,0,0,1,3.11,1.25h0l24.89,19.91,59.74-55.38a4.71,4.71,0,0,1,2.49-1.25c.62,0,.62,0,1.24.63,0,0,.62,1.24-.62,3.73l-61,71.56h0a2.78,2.78,0,0,1-2.48,1.87Z"/></svg>