<svg id="Layer_1" data-name="Layer 1" xmlns="http://www.w3.org/2000/svg" viewBox="0 0 350 350"><defs><style>.cls-1{fill:#730f77;}.cls-2{fill:#ed5136;}</style></defs><title>national_report</title><path class="cls-1" d="M87.59,202.22a9.1,9.1,0,0,0-9.22,8.94v55.91a9.22,9.22,0,0,0,18.43,0V211.16A9.09,9.09,0,0,0,87.59,202.22Zm58.19-41.93a9.09,9.09,0,0,0-9.22,8.93v97.85a9.22,9.22,0,0,0,18.43,0V169.22a9.09,9.09,0,0,0-9.21-8.93Zm58.18,28a9.1,9.1,0,0,0-9.22,8.94v69.89a9.22,9.22,0,0,0,18.44,0V197.18A9.1,9.1,0,0,0,204,188.24Zm58.19-28a9.09,9.09,0,0,0-9.22,8.93v97.85a9.22,9.22,0,0,0,18.43,0V169.22a9.09,9.09,0,0,0-9.21-8.93Z"/><path class="cls-2" d="M279.9,63.09a8.88,8.88,0,0,0-3.79-.81,7.31,7.31,0,0,0-1.68.16H233.06a8.94,8.94,0,1,0,0,17.87h20.11l-64.39,62.16L137.47,93.19a2.47,2.47,0,0,0-.66-.67,9.83,9.83,0,0,0-13.13.26L52.08,162a9.13,9.13,0,0,0,0,13.19,9.76,9.76,0,0,0,13.46,0l65.78-63.57,52.07,50c3.35,3.24,9.55,3,12.21.27l71.87-69.21v20.63a9.22,9.22,0,0,0,18.43,0V71.38A8.73,8.73,0,0,0,279.9,63.09Z"/></svg>