<svg id="Layer_1" data-name="Layer 1" xmlns="http://www.w3.org/2000/svg" viewBox="0 0 350 350"><defs><style>.cls-1{fill:#730f77;}.cls-2{fill:none;stroke:#ed5136;stroke-miterlimit:10;stroke-width:14px;}</style></defs><title>performance</title><path class="cls-1" d="M225.47,163.39A31.36,31.36,0,1,1,256.84,132,31.4,31.4,0,0,1,225.47,163.39Zm0-50.17A18.82,18.82,0,1,0,244.29,132,18.83,18.83,0,0,0,225.47,113.22ZM62.4,301.38A6.32,6.32,0,0,1,58,299.55,6.25,6.25,0,0,1,56.5,293c19.31-53.08,39.61-80,60.32-80,6.83,0,13.22,2.94,19,8.71,9.13,9.13,9.46,18.22,8.13,24.24C139.76,264.85,113,283.38,64.54,301a6.38,6.38,0,0,1-2.14.37Zm54.43-75.87c-6.21,0-13.52,5.45-21.14,15.74-7.49,10.13-15,24.55-22.43,43,16.75-6.73,30.21-13.57,40.13-20.38,13.39-9.2,17.35-16.31,18.32-20.65s-.59-8.49-4.76-12.66c-3.39-3.38-6.7-5-10.13-5Zm183.91-175c-32.55,0-61.55,5.52-86.23,16.41a148.21,148.21,0,0,0-51.76,37.46c-2.61,3-5,6-7.27,9-10.82.71-21.88,5-32.92,12.79-9.34,6.58-18.73,15.68-27.91,27.06a238.75,238.75,0,0,0-25.31,38.76,6.27,6.27,0,0,0,10,7.25,84.59,84.59,0,0,1,16.28-11.74,87.66,87.66,0,0,1,37.15-11.36c4,10.17,15.35,22.34,20.81,27.8s17.62,16.83,27.8,20.81A87.51,87.51,0,0,1,170,261.84a83.82,83.82,0,0,1-11.73,16.27,6.28,6.28,0,0,0,4.44,10.71,6.16,6.16,0,0,0,2.8-.66,239.21,239.21,0,0,0,38.76-25.32c11.38-9.18,20.49-18.56,27.06-27.91,7.78-11.05,12.07-22.1,12.8-32.91,3-2.24,6-4.66,9-7.28A147.9,147.9,0,0,0,290.59,143C301.48,118.32,307,89.31,307,56.75V50.48h-6.26ZM95.1,173.53c12-17.35,30.23-38.86,50.83-45.63-8.14,14.27-12.35,27.36-13.87,35.67a97.72,97.72,0,0,0-37,10ZM184,262.37a97.49,97.49,0,0,0,9.95-36.93c8.29-1.52,21.4-5.74,35.65-13.86-6.77,20.56-28.28,38.83-45.61,50.79Zm60.85-77c-26.09,23-53.11,28.22-57,28.22,0,0-2.59,0-9.52-4.93A127,127,0,0,1,162.49,195a127,127,0,0,1-13.61-15.83c-4.88-6.93-4.93-9.5-4.93-9.52,0-3.89,5.21-30.91,28.22-57,27.55-31.21,69.71-48.29,122.24-49.55-1.27,52.52-18.33,94.68-49.55,122.23Z"/><circle class="cls-2" cx="225.5" cy="131.5" r="24.5"/></svg>