<svg id="Layer_1" data-name="Layer 1" xmlns="http://www.w3.org/2000/svg" viewBox="0 0 350 350"><defs><style>.cls-1{fill:#730f77;}.cls-2{fill:#ed5136;}</style></defs><title>contact</title><path class="cls-1" d="M181.29,226.23a21.29,21.29,0,0,1-9.63-2.4L57.8,151.67c-2.4-1.61-3.21-4.82-1.6-8,1.6-2.41,4.81-3.21,8-1.6L178.08,213.4a6,6,0,0,0,7.23,0L299.15,142a5.79,5.79,0,0,1,6.42,9.63L191.71,223a16.1,16.1,0,0,1-10.42,3.21Z"/><path class="cls-1" d="M291.94,297.6H71.43c-9.62,0-18.44-8-18.44-17.64V154.06a18.13,18.13,0,0,1,11.23-16.83L96.29,123.6a4.88,4.88,0,0,1,7.22,3.2A4.88,4.88,0,0,1,100.3,134L68.22,147.65c-2.4.81-4,3.21-4,6.41V280a7.17,7.17,0,0,0,7.21,7.2H292a7.19,7.19,0,0,0,7.19-7.18V151.65c0-.78-.79-1.59-1.6-2.39l-34.48-14.44a5.91,5.91,0,0,1-3.19-7.25c.79-3.17,4.79-4,7.2-3.17l34.48,14.43a14.27,14.27,0,0,1,8,12.83V280a17.79,17.79,0,0,1-17.64,17.63Z"/><path class="cls-1" d="M264.68,174.92h-.15a5.48,5.48,0,0,1-5.48-5.48c0-.05,0-.1,0-.15V59.42a7.19,7.19,0,0,0-7.19-7.19H110.7a7.18,7.18,0,0,0-7.18,7.19v110A5.48,5.48,0,0,1,98,174.92h-.16c-2.39,0-4.8-2.41-4.8-5.62V59.46c0-9.65,8-18.46,17.64-18.46H251.85a18.66,18.66,0,0,1,18.44,18.46v110a5.48,5.48,0,0,1-5.48,5.48h-.13Z"/><path class="cls-2" d="M163.13,160.08a56.61,56.61,0,0,0,22,4.35,58.67,58.67,0,0,0,21-3.69,32.12,32.12,0,0,0,14.15-9.84h.07a4.59,4.59,0,0,1,4.57-4.18h0a4.6,4.6,0,0,1,4.63,4.41h.37c-.1.31-.24.6-.36.91a4.53,4.53,0,0,1-1.54,3.09,31.61,31.61,0,0,1-12.57,12q-12.09,6.64-29.52,6.64-16.86,0-29.11-5.61a39.32,39.32,0,0,1-20.32-21.54c-1.68-2.28-3.9-10.37-3.9-19v-.41a53.3,53.3,0,0,1,6.8-26.34A44.5,44.5,0,0,1,158,82.51q11.81-6.12,27-6.12a51,51,0,0,1,22.87,4.94,33.78,33.78,0,0,1,14.75,14c3.52,6.06,4.69,12.68,4.69,19.87a39.8,39.8,0,0,1-7.15,23.21,32.3,32.3,0,0,1-25.51,12.83q-4.24,0-6.39-1.47a7.06,7.06,0,0,1-3-4.82,17.73,17.73,0,0,1-13.79,6.29,16,16,0,0,1-11.14-4.94c-3.72-3.85-5.62-9.52-5.41-15.89a41.3,41.3,0,0,1,7.1-21.56c4.58-7,12.32-10.56,17.46-10.56,6.07,0,12.85,2.83,15.75,7.4l.46-1.67a5.8,5.8,0,0,1-.16-.81l0-.42a4.44,4.44,0,0,1,4.44-4.4h0a4.45,4.45,0,0,1,4.48,4.4v.05h.05l0,.14,0,.23a4.28,4.28,0,0,1-.63,2.12l-7.56,29a29.75,29.75,0,0,0-.8,6.56c.09-1.07.28-.44.68,0a1.85,1.85,0,0,0,1.4.63c1.64,0,7.4-2.27,10-4.22a22.88,22.88,0,0,0,7.7-9.19A29,29,0,0,0,218,114.72c0-8.26-1.81-15.16-7.87-20.72s-14.51-8.41-25.38-8.41c-9.23,0-16.57,1.94-23,5.65a35.87,35.87,0,0,0-16.4,20.27c-1.43,2.12-3.26,9.13-3.26,16.41a35,35,0,0,0,5.4,19.11,33.23,33.23,0,0,0,19.66,14.41ZM187.6,110.4c-1.77-2-4.67-2.81-7.4-2.81a10.47,10.47,0,0,0-7.7,2.86,16.83,16.83,0,0,0-5.62,8.45c-1.27,4.13-2.94,7.8-2.94,11,0,4.27.87,7.4,2.63,9.42s5,3,7.63,3c1.94,0,3.19-.71,4.89-1.66a13.34,13.34,0,0,0,3.83-3.17,26,26,0,0,0,4.68-9c1.31-3.93,2.93-7.34,2.93-10.74a9.49,9.49,0,0,0-2.92-7.4Z"/></svg>