<svg id="Layer_1" data-name="Layer 1" xmlns="http://www.w3.org/2000/svg" viewBox="0 0 350 350"><defs><style>.cls-1{fill:#730f77;}.cls-2{fill:#ed5136;}</style></defs><title>methodlogy</title><path class="cls-1" d="M297.16,209.13c-2.61,5.7-7,9.35-12.47,12.41q-44.62,25-88.95,50.49c-9.73,5.62-19.15,6.8-29.77,2.53-17-6.82-34.3-12.81-51.42-19.3-3.85-1.46-7.09-2.47-9.56,2.19A8.7,8.7,0,0,1,98,262a200.47,200.47,0,0,1-38.73,0c-6-.65-9-5.41-9-11.59,0-25.26-.06-50.52,0-75.78,0-7.79,4.39-11.47,12-11.5,10.74,0,21.47-.08,32.21,0,2.16,0,5.18,0,6.32,1.25,7.13,8.13,16.58,5.84,25.46,6.38,14.91.9,28.62,5.58,40.1,15.11a24.82,24.82,0,0,0,18.14,6c8.2-.35,16.43.14,24.63-.13,9.59-.32,16.87,3.26,20.13,12.42,2.15,6.06,5.11,4.88,9.28,2.75q14.34-7.32,28.87-14.26c14.77-7.11,21.17-5.14,29.71,8.92ZM188.64,227.92c-14.76,0-25.49.13-36.2-.07-3.57-.07-7.26-1.14-7.31-5.71s3.65-5.37,7.25-5.66c2.51-.2,5-.14,7.56-.14,15.77,0,31.54,0,47.31,0,5.07,0,11.26.61,11.19-6.68-.07-7.64-6.76-6-11.48-6.15-9.45-.24-18.92-.19-28.38-.05-6,.08-10.91-1.51-15.38-5.8-13.09-12.54-29.42-16.22-47-16.54-6.75-.12-8.79,3-8.69,9.19.2,13.87.27,27.75,0,41.62-.14,6.37,2.38,9.71,8.34,11.84q26.26,9.39,52.24,19.62c8.67,3.41,16.24,2.35,24.25-2.34,22-12.9,44.39-25.26,66.61-37.85,7.41-4.19,14.82-8.38,22.19-12.65,2.91-1.69,5.33-4,3.33-7.65-1.91-3.47-5.23-3.18-8.31-1.81-4.89,2.19-9.7,4.55-14.48,7C237.45,220.41,213.58,234.06,188.64,227.92Zm-92.8-15h.08c0-4.71.09-9.43,0-14.15-.69-29.74,5.64-24.47-26.31-25.17-6.7-.14-8.8,2.82-8.72,9.08.21,14.47-.22,28.94.07,43.4.58,28.73-6.14,24.36,26.8,24.76,6.19.08,8.28-2.82,8.15-8.67C95.67,232.44,95.84,222.68,95.84,212.93Z"/><path class="cls-2" d="M260,107.14c-22.7,6-45.74,10.92-69,13.1-14.38,1.34-28.49-5.67-42.77-8.73-3-.65-4.15-3.07-4.58-6.14-2.28-16.64-.74-18.93,15.6-22.06S191.76,77.19,208,74a38.36,38.36,0,0,1,16.38.57c11.83,2.71,23.72,5.17,35.58,7.73v5c-7.67,3.42-16,3.93-24.1,5.66-25.88,5.55-51.76,12.14-78,1.41a2.75,2.75,0,0,0-.81-.13c-2.65-.23-6-1.51-6.38,2.79-.33,3.44-1.5,8.37,2.94,9.32,14.41,3.07,28.24,10.11,43.6,7.35,20.91-3.76,41.8-7.65,62.7-11.49Z"/><path class="cls-2" d="M260,120.4c-17.35,3.1-34.78,5.85-52,9.44-12.13,2.52-23.94,3-35.88-.65A98.6,98.6,0,0,0,158.38,126c-2.64-.42-6.6-2.65-7.51,2-.76,3.85-1.67,8.38,3.68,10.54,2.3.93,6.53,1.15,5,5-1.32,3.26-4.8,1.14-7.39.86-6.38-.7-9.28-4.13-8.58-10.59a45.39,45.39,0,0,0,0-5c0-11.62.93-13,11.66-9.26,25.35,8.93,50.35,5.73,75.56,0,9.66-2.2,19.44-3.91,29.17-5.85Z"/><path class="cls-2" d="M260,140.29c-20.83,2.39-41.16,7.6-61.81,11.05-4.37.73-8.7,1.65-13,.19-1.64-.55-2.93-1.66-2.43-3.7.41-1.68,1.84-1.76,3.25-1.85,25.08-1.71,49.25-8.87,74-12.32Z"/><path class="cls-2" d="M175.46,168.46c-1.12-1.54-2.29-4.44-3.34-4.4-9,.34-6.93-6-7-11-.07-3-.09-6,0-9.06s-.29-6.68,4.22-6.48c3.91.17,8,1,8,6.27,0,8.23-.15,16.46-.25,24.69Z"/></svg>