<svg id="Layer_1" data-name="Layer 1" xmlns="http://www.w3.org/2000/svg" viewBox="0 0 350 350"><defs><style>.cls-1{fill:#fff;}</style></defs><title>icon</title><path class="cls-1" d="M121.61,163.39A45,45,0,0,1,151,140c-21.47-17.71-16.71-47.16-.94-60.49a39.57,39.57,0,0,1,54.2,2.64C218.75,97,220,123.38,200.6,139.87c.82.28,1.48.54,2.16.74a43.62,43.62,0,0,1,26.27,21c.79,1.42,1.48,1.72,3,1.27,4.93-1.43,9.91-2.69,14.87-4s7.57.65,7.58,5.74c0,10.51,0,21,0,31.54a3.18,3.18,0,0,0,2,3.35,14,14,0,0,1,7.87,13.08c0,3.14,0,6.29,0,9.44a14.08,14.08,0,0,1-8,13.25,3,3,0,0,0-1.85,3.18c.07,7.37,0,14.74,0,22.11,0,3.68-1.07,5.08-4.66,6q-35.78,9.57-71.56,19.08a9.63,9.63,0,0,1-4.71,0q-35.81-9.44-71.56-19.06c-3.83-1-4.81-2.36-4.81-6.41,0-7.29,0-14.58,0-21.87a2.83,2.83,0,0,0-1.72-3A14.14,14.14,0,0,1,87.41,222c0-3.07,0-6.14,0-9.21a14.19,14.19,0,0,1,8.14-13.39,2.66,2.66,0,0,0,1.67-2.81c0-10.67,0-21.34,0-32,0-4.94,2.65-7,7.43-5.69Zm49.15,111.34c0-.89.11-1.57.11-2.24q0-41.81,0-83.59c0-1.58-.42-2.24-2-2.66-15.5-4.05-31-8.21-46.45-12.34l-15.12-4v27.68c12.08,1.73,19.29,9,19.38,19.46.08,11-6.78,18.2-19.58,20.28,0,6.08.07,12.2,0,18.32,0,1.71.55,2.34,2.18,2.76,13.73,3.59,27.42,7.27,41.12,10.93Zm73.72-104.81c-.83.18-1.43.27-2,.43-19.78,5.27-39.54,10.59-59.34,15.79-1.88.49-2.36,1.25-2.35,3.11q.09,41.44,0,82.89v2.33a2.42,2.42,0,0,0,.6.08q30.9-8.19,61.8-16.38c1.32-.35,1.37-1.16,1.37-2.22,0-5.83,0-11.67,0-17.5a8.44,8.44,0,0,0-.18-1.27c-10.86-1.21-18.31-7.94-19.28-17.3a19.6,19.6,0,0,1,3-13.2c3.86-5.84,9.47-8.7,16.4-9.1ZM176,79.93a29.39,29.39,0,1,0,29.27,29.53A29.4,29.4,0,0,0,176,79.93Zm-44.52,86c.86.26,1.49.48,2.14.66,13.4,3.58,26.79,7.17,40.21,10.68a8.41,8.41,0,0,0,4,0c8.76-2.25,17.48-4.62,26.22-6.95L220.15,166a14.55,14.55,0,0,0-.73-1.41c-6.63-9.9-15.87-15.5-27.81-15.89-10.35-.34-20.71-.23-31.07,0a36.84,36.84,0,0,0-10.34,1.83C142.09,153.19,136,158.42,131.48,165.92ZM105,207.57c-.84,0-1.69,0-2.53,0-3,.14-5,1.8-5.12,4.81-.18,3.36-.12,6.75,0,10.11a4.2,4.2,0,0,0,3.24,4.29c3.78.81,7.65,1,11.23-.89a9.62,9.62,0,0,0,4.7-11C115.18,210,111.4,207.56,105,207.57Zm149.39,10h0c0-1.69.12-3.38,0-5.06-.27-3.13-2.12-4.82-5.28-4.91-1.68,0-3.38-.07-5.06,0a9.87,9.87,0,0,0-9.2,9c-.36,4.72,2.88,9.35,7.51,10.18a31.25,31.25,0,0,0,7.55.26c2.64-.17,4.15-1.81,4.43-4.47A50,50,0,0,0,254.37,217.54Z"/></svg>