<?xml version="1.0"?>
<svg xmlns="http://www.w3.org/2000/svg" xmlns:xlink="http://www.w3.org/1999/xlink" xmlns:svgjs="http://svgjs.com/svgjs" version="1.1" width="512" height="512" x="0" y="0" viewBox="0 0 480 480" style="enable-background:new 0 0 512 512" xml:space="preserve"><g>
<g xmlns="http://www.w3.org/2000/svg">
	<g>
		<rect x="208" y="32" width="64" height="16" fill="#ffffff" data-original="#000000" style=""/>
	</g>
</g>
<g xmlns="http://www.w3.org/2000/svg">
	<g>
		<rect x="208" y="64" width="64" height="16" fill="#ffffff" data-original="#000000" style=""/>
	</g>
</g>
<g xmlns="http://www.w3.org/2000/svg">
	<g>
		<rect x="208" y="216" width="64" height="16" fill="#ffffff" data-original="#000000" style=""/>
	</g>
</g>
<g xmlns="http://www.w3.org/2000/svg">
	<g>
		<rect x="208" y="248" width="64" height="16" fill="#ffffff" data-original="#000000" style=""/>
	</g>
</g>
<g xmlns="http://www.w3.org/2000/svg">
	<g>
		<path d="M360,296h112c4.416,0,8-3.576,8-8v-96c0-4.424-3.584-8-8-8H360c-4.416,0-8,3.576-8,8v40h-48v-40c0-4.424-3.584-8-8-8h-48    v-72h48c4.416,0,8-3.576,8-8V8c0-4.424-3.584-8-8-8H184c-4.416,0-8,3.576-8,8v96c0,4.424,3.584,8,8,8h48v72h-48    c-4.416,0-8,3.576-8,8v40h-48v-40c0-4.424-3.584-8-8-8H8c-4.416,0-8,3.576-8,8v96c0,4.424,3.584,8,8,8h48v72H8    c-4.416,0-8,3.576-8,8v96c0,4.424,3.584,8,8,8h112c4.416,0,8-3.576,8-8v-96c0-4.424-3.584-8-8-8H72v-72h48c4.416,0,8-3.576,8-8    v-40h48v40c0,4.424,3.584,8,8,8h48v136c0,4.424,3.584,8,8,8h112v32c0,4.424,3.584,8,8,8h112c4.416,0,8-3.576,8-8v-96    c0-4.424-3.584-8-8-8H360c-4.416,0-8,3.576-8,8v48H248V296h48c4.416,0,8-3.576,8-8v-40h48v40C352,292.424,355.584,296,360,296z     M368,200h96v80h-96V200z M112,384v80H16v-80H112z M112,280H16v-80h96V280z M368,384h96v80h-96V384z M192,96V16h96v80H192z     M288,280h-40h-16h-40v-80h96V280z" fill="#ffffff" data-original="#000000" style=""/>
	</g>
</g>
<g xmlns="http://www.w3.org/2000/svg">
	<g>
		<rect x="384" y="216" width="64" height="16" fill="#ffffff" data-original="#000000" style=""/>
	</g>
</g>
<g xmlns="http://www.w3.org/2000/svg">
	<g>
		<rect x="384" y="248" width="64" height="16" fill="#ffffff" data-original="#000000" style=""/>
	</g>
</g>
<g xmlns="http://www.w3.org/2000/svg">
	<g>
		<rect x="32" y="216" width="64" height="16" fill="#ffffff" data-original="#000000" style=""/>
	</g>
</g>
<g xmlns="http://www.w3.org/2000/svg">
	<g>
		<rect x="32" y="248" width="64" height="16" fill="#ffffff" data-original="#000000" style=""/>
	</g>
</g>
<g xmlns="http://www.w3.org/2000/svg">
	<g>
		<rect x="384" y="400" width="64" height="16" fill="#ffffff" data-original="#000000" style=""/>
	</g>
</g>
<g xmlns="http://www.w3.org/2000/svg">
	<g>
		<rect x="384" y="432" width="64" height="16" fill="#ffffff" data-original="#000000" style=""/>
	</g>
</g>
<g xmlns="http://www.w3.org/2000/svg">
	<g>
		<rect x="32" y="400" width="64" height="16" fill="#ffffff" data-original="#000000" style=""/>
	</g>
</g>
<g xmlns="http://www.w3.org/2000/svg">
	<g>
		<rect x="32" y="432" width="64" height="16" fill="#ffffff" data-original="#000000" style=""/>
	</g>
</g>
<g xmlns="http://www.w3.org/2000/svg">
</g>
<g xmlns="http://www.w3.org/2000/svg">
</g>
<g xmlns="http://www.w3.org/2000/svg">
</g>
<g xmlns="http://www.w3.org/2000/svg">
</g>
<g xmlns="http://www.w3.org/2000/svg">
</g>
<g xmlns="http://www.w3.org/2000/svg">
</g>
<g xmlns="http://www.w3.org/2000/svg">
</g>
<g xmlns="http://www.w3.org/2000/svg">
</g>
<g xmlns="http://www.w3.org/2000/svg">
</g>
<g xmlns="http://www.w3.org/2000/svg">
</g>
<g xmlns="http://www.w3.org/2000/svg">
</g>
<g xmlns="http://www.w3.org/2000/svg">
</g>
<g xmlns="http://www.w3.org/2000/svg">
</g>
<g xmlns="http://www.w3.org/2000/svg">
</g>
<g xmlns="http://www.w3.org/2000/svg">
</g>
</g></svg>
